<svg width="85" height="83" viewBox="0 0 85 83" fill="none" xmlns="http://www.w3.org/2000/svg">
<path d="M38.088 0.0879974V49.528C38.088 55.032 36.392 59.448 33 62.776C29.608 66.04 25.128 67.672 19.56 67.672C13.928 67.672 9.416 66.008 6.024 62.68C2.632 59.288 0.936005 54.68 0.936005 48.856H9.672C9.736 52.12 10.568 54.776 12.168 56.824C13.832 58.872 16.296 59.896 19.56 59.896C22.824 59.896 25.256 58.936 26.856 57.016C28.456 55.032 29.256 52.536 29.256 49.528V0.0879974H38.088Z" fill="url(#paint0_linear)"/>
<path d="M70.896 48.536C73.328 48.92 75.536 49.912 77.52 51.512C79.568 53.112 81.168 55.096 82.32 57.464C83.536 59.832 84.144 62.36 84.144 65.048C84.144 68.44 83.28 71.512 81.552 74.264C79.824 76.952 77.296 79.096 73.968 80.696C70.704 82.232 66.832 83 62.352 83H37.392V16.088H61.392C65.936 16.088 69.808 16.856 73.008 18.392C76.208 19.864 78.608 21.88 80.208 24.44C81.808 27 82.608 29.88 82.608 33.08C82.608 37.048 81.52 40.344 79.344 42.968C77.232 45.528 74.416 47.384 70.896 48.536ZM46.128 44.984H60.816C64.912 44.984 68.08 44.024 70.32 42.104C72.56 40.184 73.68 37.528 73.68 34.136C73.68 30.744 72.56 28.088 70.32 26.168C68.08 24.248 64.848 23.288 60.624 23.288H46.128V44.984ZM61.584 75.8C65.936 75.8 69.328 74.776 71.76 72.728C74.192 70.68 75.408 67.832 75.408 64.184C75.408 60.472 74.128 57.56 71.568 55.448C69.008 53.272 65.584 52.184 61.296 52.184H46.128V75.8H61.584Z" fill="url(#paint1_linear)"/>
<defs>
<linearGradient id="paint0_linear" x1="42.54" y1="0.0879974" x2="42.54" y2="83" gradientUnits="userSpaceOnUse">
<stop stop-color="#F2778D"/>
<stop offset="1" stop-color="#F2BC79"/>
</linearGradient>
<linearGradient id="paint1_linear" x1="42.54" y1="0.0879974" x2="42.54" y2="83" gradientUnits="userSpaceOnUse">
<stop stop-color="#F2778D"/>
<stop offset="1" stop-color="#F2BC79"/>
</linearGradient>
</defs>
</svg>
